<?xml version="1.0" encoding="UTF-8"?>
<svg id="Layer_1" xmlns="http://www.w3.org/2000/svg" version="1.1" xmlns:xlink="http://www.w3.org/1999/xlink" viewBox="0 0 1000 1000">
  <!-- Generator: Adobe Illustrator 29.3.1, SVG Export Plug-In . SVG Version: 2.1.0 Build 151)  -->
  <defs>
    <style>
      .st0 {
        fill: #ffecd5;
      }

      .st1 {
        fill: #904b32;
      }

      .st2 {
        fill: none;
      }

      .st3 {
        fill: #995840;
      }

      .st4 {
        fill: #fbe6cf;
      }

      .st5 {
        fill: #fba764;
      }

      .st6 {
        fill: #fdcda3;
      }

      .st7 {
        fill: #e6c8b0;
      }
    </style>
  </defs>
  <rect class="st2" width="1000" height="1000"/>
  <g>
    <rect class="st3" x="250" y="50" width="100" height="10"/>
    <rect class="st3" x="250" y="70" width="100" height="10"/>
    <rect class="st3" x="250" y="90" width="100" height="10"/>
    <rect class="st3" x="250" y="110" width="100" height="10"/>
    <rect class="st3" x="250" y="130" width="100" height="10"/>
  </g>
  <path class="st0" d="M500,75l-25-25-25,25,25,25-25,25,25,25,25-25,25,25,25-25-25-25,25-25-25-25-25,25Z"/>
  <path class="st1" d="M715,50h35v35l-65,65h-35v-35l65-65Z"/>
  <path class="st5" d="M715,250h35v35l-65,65h-35v-35l65-65Z"/>
  <g>
    <rect class="st4" x="650" y="450" width="100" height="10"/>
    <rect class="st4" x="650" y="470" width="100" height="10"/>
    <rect class="st4" x="650" y="490" width="100" height="10"/>
    <rect class="st4" x="650" y="510" width="100" height="10"/>
    <rect class="st4" x="650" y="530" width="100" height="10"/>
  </g>
  <path class="st0" d="M900,475l-25-25-25,25,25,25-25,25,25,25,25-25,25,25,25-25-25-25,25-25-25-25-25,25Z"/>
  <path class="st6" d="M700,675l-25-25-25,25,25,25-25,25,25,25,25-25,25,25,25-25-25-25,25-25-25-25-25,25Z"/>
  <path class="st0" d="M515,850h35v35l-65,65h-35v-35l65-65Z"/>
  <path class="st7" d="M915,850h35v35l-65,65h-35v-35l65-65Z"/>
</svg>