<?xml version="1.0" encoding="UTF-8"?>
<svg id="Layer_1" xmlns="http://www.w3.org/2000/svg" version="1.1" xmlns:xlink="http://www.w3.org/1999/xlink" viewBox="0 0 1000 1000">
  <!-- Generator: Adobe Illustrator 29.3.1, SVG Export Plug-In . SVG Version: 2.1.0 Build 151)  -->
  <defs>
    <style>
      .st0 {
        fill: #fbb47e;
      }

      .st1 {
        fill: #ffecd5;
      }

      .st2 {
        fill: #fff;
      }

      .st3 {
        fill: #b5897b;
      }

      .st4 {
        fill: none;
      }

      .st5 {
        fill: #faa666;
      }

      .st6 {
        fill: #fbb27a;
      }

      .st7 {
        fill: #d2b7ae;
      }

      .st8 {
        fill: #fffefe;
      }

      .st9 {
        fill: #c39f94;
      }

      .st10 {
        fill: #bf998c;
      }

      .st11 {
        fill: #c5a297;
      }
    </style>
  </defs>
  <rect class="st4" width="1000" height="1000"/>
  <path class="st1" d="M178.6,250c0-39.4,32-71.4,71.4-71.4l-71.4,71.4c39.4,0,71.4-32,71.4-71.4h0"/>
  <path class="st8" d="M464.3,178.6c39.4,0,71.4,32,71.4,71.4h0l-71.4-71.4c0,39.4,32,71.4,71.4,71.4"/>
  <path class="st5" d="M464.3,392.9c0-39.4,32-71.4,71.4-71.4h0l-71.4,71.4c39.4,0,71.4-32,71.4-71.4h0"/>
  <path class="st0" d="M607.1,464.3c39.4,0,71.4,32,71.4,71.4l-71.4-71.4c0,39.4,32,71.4,71.4,71.4"/>
  <path class="st6" d="M750,464.3c39.4,0,71.4,32,71.4,71.4l-71.4-71.4c0,39.4,32,71.4,71.4,71.4"/>
  <path class="st3" d="M321.4,678.6c0-39.4,32-71.4,71.4-71.4l-71.4,71.4c39.4,0,71.4-32,71.4-71.4"/>
  <rect class="st2" x="607.1" y="750" width="71.4" height="71.4"/>
  <path class="st7" d="M892.9,821.4c0-39.4,32-71.4,71.4-71.4h0l-71.4,71.4c39.4,0,71.4-32,71.4-71.4h0"/>
  <path class="st9" d="M35.7,964.3c0-39.4,32-71.4,71.4-71.4l-71.4,71.4c39.4,0,71.4-32,71.4-71.4"/>
  <rect class="st2" x="321.4" y="892.9" width="71.4" height="71.4"/>
  <path class="st11" d="M357.1,892.9c19.7,0,35.7,16,35.7,35.7h0l-35.7-35.7c0,19.7,16,35.7,35.7,35.7h0"/>
  <path class="st10" d="M750,964.3c0-39.4,32-71.4,71.4-71.4l-71.4,71.4c39.4,0,71.4-32,71.4-71.4"/>
</svg>