<?xml version="1.0" encoding="UTF-8"?>
<svg id="Layer_1" xmlns="http://www.w3.org/2000/svg" version="1.1" xmlns:xlink="http://www.w3.org/1999/xlink" viewBox="0 0 1000 1000">
  <!-- Generator: Adobe Illustrator 29.3.1, SVG Export Plug-In . SVG Version: 2.1.0 Build 151)  -->
  <defs>
    <style>
      .st0 {
        fill: #fee4c8;
      }

      .st1 {
        fill: none;
      }

      .st2 {
        fill: #fdc99c;
      }

      .st3 {
        fill: #fcc08d;
      }

      .st4 {
        fill: #96533b;
      }
    </style>
  </defs>
  <rect class="st1" width="1000" height="1000"/>
  <g>
    <rect class="st0" x="83.3" y="83.3" width="16.7" height="166.7"/>
    <rect class="st0" x="116.7" y="83.3" width="16.7" height="166.7"/>
    <rect class="st0" x="150" y="83.3" width="16.7" height="166.7"/>
    <rect class="st0" x="183.3" y="83.3" width="16.7" height="166.7"/>
    <rect class="st0" x="216.7" y="83.3" width="16.7" height="166.7"/>
  </g>
  <g>
    <rect class="st2" x="416.7" y="83.3" width="166.7" height="16.7"/>
    <rect class="st2" x="416.7" y="116.7" width="166.7" height="16.7"/>
    <rect class="st2" x="416.7" y="150" width="166.7" height="16.7"/>
    <rect class="st2" x="416.7" y="183.3" width="166.7" height="16.7"/>
    <rect class="st2" x="416.7" y="216.7" width="166.7" height="16.7"/>
  </g>
  <g>
    <rect class="st4" x="750" y="416.7" width="16.7" height="166.7"/>
    <rect class="st4" x="783.3" y="416.7" width="16.7" height="166.7"/>
    <rect class="st4" x="816.7" y="416.7" width="16.7" height="166.7"/>
    <rect class="st4" x="850" y="416.7" width="16.7" height="166.7"/>
    <rect class="st4" x="883.3" y="416.7" width="16.7" height="166.7"/>
  </g>
  <g>
    <rect class="st3" x="416.7" y="750" width="166.7" height="16.7"/>
    <rect class="st3" x="416.7" y="783.3" width="166.7" height="16.7"/>
    <rect class="st3" x="416.7" y="816.7" width="166.7" height="16.7"/>
    <rect class="st3" x="416.7" y="850" width="166.7" height="16.7"/>
    <rect class="st3" x="416.7" y="883.3" width="166.7" height="16.7"/>
  </g>
</svg>