<?xml version="1.0" encoding="UTF-8"?>
<svg id="Layer_1" xmlns="http://www.w3.org/2000/svg" version="1.1" xmlns:xlink="http://www.w3.org/1999/xlink" viewBox="0 0 1000 1000">
  <!-- Generator: Adobe Illustrator 29.3.1, SVG Export Plug-In . SVG Version: 2.1.0 Build 151)  -->
  <defs>
    <style>
      .st0 {
        fill: #fff4e6;
      }

      .st1 {
        fill: #d8c1b9;
      }

      .st2 {
        fill: #fff0de;
      }

      .st3 {
        fill: none;
      }

      .st4 {
        fill: #feefe3;
      }

      .st5 {
        fill: #fff0dd;
      }

      .st6 {
        fill: #faa564;
      }

      .st7 {
        fill: #fff1e0;
      }

      .st8 {
        fill: #fcbf90;
      }

      .st9 {
        fill: #fbac6f;
      }

      .st10 {
        fill: #feecde;
      }

      .st11 {
        fill: #fa9d56;
      }
    </style>
  </defs>
  <rect class="st3" width="1000" height="1000"/>
  <path class="st10" d="M285.7,142.9C285.7,64,349.7,0,428.6,0l-142.9,142.9c78.9,0,142.9-64,142.9-142.9"/>
  <path class="st9" d="M857.1,142.9C857.1,64,921.1,0,1000,0l-142.9,142.9c78.9,0,142.9-64,142.9-142.9"/>
  <path class="st0" d="M428.6,142.9c78.9,0,142.9,64,142.9,142.9l-142.9-142.9c0,78.9,64,142.9,142.9,142.9"/>
  <path class="st5" d="M714.3,142.9c78.9,0,142.9,64,142.9,142.9l-142.9-142.9c0,78.9,64,142.9,142.9,142.9"/>
  <path class="st8" d="M857.1,142.9c78.9,0,142.9,64,142.9,142.9l-142.9-142.9c0,78.9,64,142.9,142.9,142.9"/>
  <path class="st11" d="M0,571.4c0-78.9,64-142.9,142.9-142.9L0,571.4c78.9,0,142.9-64,142.9-142.9"/>
  <path class="st4" d="M285.7,571.4c0-78.9,64-142.9,142.9-142.9l-142.9,142.9c78.9,0,142.9-64,142.9-142.9"/>
  <path class="st6" d="M428.6,571.4c0-78.9,64-142.9,142.9-142.9l-142.9,142.9c78.9,0,142.9-64,142.9-142.9"/>
  <path class="st7" d="M285.7,714.3c0-78.9,64-142.9,142.9-142.9l-142.9,142.9c78.9,0,142.9-64,142.9-142.9"/>
  <path class="st1" d="M142.9,1000c0-78.9,64-142.9,142.9-142.9l-142.9,142.9c78.9,0,142.9-64,142.9-142.9"/>
  <path class="st2" d="M285.7,857.1c78.9,0,142.9,64,142.9,142.9l-142.9-142.9c0,78.9,64,142.9,142.9,142.9"/>
</svg>